<svg xmlns="http://www.w3.org/2000/svg" width="32" height="32" viewBox="0 0 24 24" fill="none" stroke="#2563eb" stroke-width="2" stroke-linecap="round" stroke-linejoin="round">
  <path d="M9.5 2A5.5 5.5 0 0 0 5 7.5c0 .96.37 1.83.98 2.5H6a4 4 0 0 0-1.73 7.6A3 3 0 0 0 7 21h1"/>
  <path d="M14.5 2A5.5 5.5 0 0 1 19 7.5c0 .96-.37 1.83-.98 2.5H18a4 4 0 0 1 1.73 7.6A3 3 0 0 1 17 21h-1"/>
  <path d="M12 2v19"/>
  <path d="M8 8c-1.5 0-3 .5-3 2.5S8 13 8 13"/>
  <path d="M16 8c1.5 0 3 .5 3 2.5S16 13 16 13"/>
  <path d="M8 17c-1 0-2-.5-2-1.5"/>
  <path d="M16 17c1 0 2-.5 2-1.5"/>
</svg>
