<svg width="32" height="32" viewBox="0 0 24 24" fill="none" xmlns="http://www.w3.org/2000/svg">
  <!-- Brain icon in heyMemory brand color -->
  <path d="M12 5C13.5 5 14.5 6 14.5 7.5C14.5 8.5 14 9 13.5 9.5C14.5 10 15.5 11 15.5 12.5C15.5 14 14.5 15 13 15H11C9.5 15 8.5 14 8.5 12.5C8.5 11 9.5 10 10.5 9.5C10 9 9.5 8.5 9.5 7.5C9.5 6 10.5 5 12 5Z" fill="#2563eb"/>
  <path d="M8 9C6.5 9 5.5 10 5.5 11.5C5.5 13 6.5 14 8 14" stroke="#2563eb" stroke-width="2" stroke-linecap="round"/>
  <path d="M16 9C17.5 9 18.5 10 18.5 11.5C18.5 13 17.5 14 16 14" stroke="#2563eb" stroke-width="2" stroke-linecap="round"/>
  <path d="M12 15C12 16.5 11 17.5 9.5 17.5C8 17.5 7 16.5 7 15" stroke="#2563eb" stroke-width="2" stroke-linecap="round"/>
  <path d="M12 15C12 16.5 13 17.5 14.5 17.5C16 17.5 17 15 17 15" stroke="#2563eb" stroke-width="2" stroke-linecap="round"/>
</svg>